<svg width="45" height="57" viewBox="0 0 45 57" fill="none" xmlns="http://www.w3.org/2000/svg">
<path d="M39.0616 32.169V23.1663C39.0576 19.155 37.6547 15.2746 35.1014 12.2123C32.548 9.15001 29.009 7.10335 25.1111 6.43482V3.34898C25.1111 2.59814 24.8171 1.87806 24.2938 1.34714C23.7706 0.816214 23.0609 0.517944 22.3209 0.517944C21.581 0.517944 20.8713 0.816214 20.348 1.34714C19.8248 1.87806 19.5308 2.59814 19.5308 3.34898V6.43482C15.6329 7.10335 12.0938 9.15001 9.54049 12.2123C6.98714 15.2746 5.58424 19.155 5.58023 23.1663V32.169C3.95206 32.753 2.54179 33.8338 1.54276 35.2631C0.543734 36.6924 0.00485344 38.4002 0 40.1525V45.8146C0 46.5654 0.293958 47.2855 0.817207 47.8164C1.34046 48.3473 2.05013 48.6456 2.79012 48.6456H11.5511C12.1936 51.0445 13.5962 53.1623 15.5426 54.6721C17.489 56.182 19.8709 57 22.3209 57C24.7709 57 27.1529 56.182 29.0993 54.6721C31.0456 53.1623 32.4483 51.0445 33.0908 48.6456H41.8518C42.5917 48.6456 43.3014 48.3473 43.8247 47.8164C44.3479 47.2855 44.6419 46.5654 44.6419 45.8146V40.1525C44.637 38.4002 44.0981 36.6924 43.0991 35.2631C42.1001 33.8338 40.6898 32.753 39.0616 32.169ZM11.1605 23.1663C11.1605 20.1629 12.3363 17.2826 14.4293 15.1589C16.5223 13.0352 19.361 11.8421 22.3209 11.8421C25.2809 11.8421 28.1196 13.0352 30.2126 15.1589C32.3056 17.2826 33.4814 20.1629 33.4814 23.1663V31.6594H11.1605V23.1663ZM22.3209 51.4766C21.3471 51.4707 20.3918 51.2062 19.5499 50.7096C18.708 50.2129 18.0088 49.5014 17.5219 48.6456H27.1199C26.633 49.5014 25.9339 50.2129 25.092 50.7096C24.2501 51.2062 23.2948 51.4707 22.3209 51.4766ZM39.0616 42.9835H5.58023V40.1525C5.58023 39.4016 5.87419 38.6816 6.39744 38.1506C6.92069 37.6197 7.63037 37.3214 8.37035 37.3214H36.2715C37.0115 37.3214 37.7212 37.6197 38.2444 38.1506C38.7677 38.6816 39.0616 39.4016 39.0616 40.1525V42.9835Z" fill="black"/>
</svg>
