<?xml version="1.0" encoding="utf-8" ?>
<svg xmlns="http://www.w3.org/2000/svg" xmlns:xlink="http://www.w3.org/1999/xlink" width="40" height="40">
	<path d="M10.1269 4.08827C13.8987 3.82023 28.5384 3.55094 31.4598 4.63943C32.6668 5.08915 33.5801 5.94353 34.1116 7.11529C34.882 8.81377 34.7671 29.556 34.5389 32.9691C34.4555 34.2156 34.2833 35.4677 33.84 36.6413C33.4501 37.0517 32.8342 37.4539 32.2667 37.5367C30.0358 37.8624 30.1115 35.2017 28.9412 34.3555C22.9861 34.7951 16.8983 35.2109 10.967 34.2831C10.7326 34.8775 10.4887 35.5214 10.1606 36.0712C9.8055 36.666 9.24011 37.1753 8.55842 37.3441C7.91492 37.5035 7.34553 37.3763 6.78305 37.0354C6.25799 36.7171 5.74354 36.1963 5.60031 35.5826C4.95987 32.8386 5.21345 13.855 5.44516 10.316C5.5218 9.14543 5.55935 7.20797 6.19876 6.20216C7.0966 4.78984 8.60692 4.42836 10.1269 4.08827ZM7.97825 11.9395C7.95148 14.7381 7.93243 17.5275 8.04711 20.325C14.5824 21.5149 25.2518 22.0394 31.6679 20.396C32.5983 19.1363 32.0981 13.782 32.0843 12.0074L16.7257 12.0164C13.8304 12.0178 10.8648 12.1477 7.97825 11.9395ZM13.989 6.69906C13.647 7.28268 13.4002 7.6847 13.5292 8.37411C14.2609 9.22604 15.2415 9.35203 16.3245 9.43285C19.4199 9.66382 22.8685 9.55397 25.9701 9.31174C26.4695 8.8455 26.5592 8.45978 26.6501 7.79617C26.3037 7.1972 26.1176 7.03909 25.4181 6.85447C22.6168 6.1152 17.0923 6.65938 13.989 6.69906ZM9.45629 25.4663C8.66044 26.2742 7.98215 27.0583 7.99774 28.272C8.00511 28.8451 8.22669 29.3465 8.63759 29.745C9.3056 30.3929 10.0593 30.5119 10.9466 30.4927C11.2343 30.4865 11.5261 30.4778 11.8126 30.4525C12.5674 29.8546 13.1748 29.1491 13.2947 28.148C13.3631 27.5763 13.1909 27.0483 12.837 26.5998C12.333 25.9612 11.6505 25.5918 10.846 25.5001Q10.1525 25.4269 9.45629 25.4663ZM28.2219 25.5366C27.4348 26.2832 26.7583 27.0479 26.7278 28.2042C26.7122 28.7973 26.9182 29.2746 27.3286 29.6987C27.964 30.3554 28.7084 30.5138 29.5842 30.5225C29.9119 30.5257 30.2446 30.5214 30.5705 30.4851C31.3259 29.7663 31.9743 29.0134 31.9988 27.9057C32.0121 27.3031 31.7929 26.8153 31.375 26.3863C30.6863 25.6793 29.8859 25.5296 28.9453 25.5227C28.7039 25.5209 28.4627 25.5186 28.2219 25.5366Z"/>
</svg>
