<?xml version="1.0" encoding="utf-8" ?>
<svg xmlns="http://www.w3.org/2000/svg" xmlns:xlink="http://www.w3.org/1999/xlink" width="40" height="40">
	<path d="M19.6068 2.6616C21.8144 2.21039 24.3357 6.98624 26.6419 7.12729C26.6447 6.65913 26.6143 6.19926 26.5768 5.73295C26.7077 5.37953 26.8638 5.00613 27.1231 4.7273C27.5595 4.25801 28.2874 3.79353 28.9468 3.77622C29.5136 3.76135 29.828 3.87797 30.2299 4.27024C30.9393 4.96253 30.6668 6.43004 30.677 7.34075C30.7058 9.90963 31.3038 12.1524 33.6278 13.5257C34.1973 13.8623 35.0145 14.157 35.478 14.6201C35.8658 15.0074 35.9187 15.501 35.9161 16.0237C35.7014 16.8296 34.8766 17.0179 34.3336 17.5451C33.0978 18.745 33.6392 27.487 33.6111 29.519C33.595 30.6777 33.6252 33.0721 32.7224 33.9277C31.3645 35.2147 26.5622 34.7071 24.69 34.6782C18.9156 34.0142 12.9936 35.4245 7.23586 34.3731C5.60666 30.2536 7.02537 20.1287 6.2802 18.3141C5.97999 17.5831 5.05512 17.225 4.61365 16.5921C4.38338 16.262 4.29752 16.0282 4.37549 15.6243C4.80013 13.4248 17.2673 4.24768 19.6068 2.6616ZM16.0473 21.4899C16.095 24.8841 16.4259 28.6103 16.0867 31.9707L24.025 31.9751Q23.8978 26.6827 23.984 21.3894C21.3961 21.5268 18.6294 21.8045 16.0473 21.4899Z"/>
</svg>
